G04 #@! TF.GenerationSoftware,KiCad,Pcbnew,5.0.2+dfsg1-1~bpo9+1*
G04 #@! TF.CreationDate,2021-01-26T15:48:09+00:00*
G04 #@! TF.ProjectId,attiny_ws2812_strip,61747469-6e79-45f7-9773-323831325f73,rev?*
G04 #@! TF.SameCoordinates,Original*
G04 #@! TF.FileFunction,Legend,Top*
G04 #@! TF.FilePolarity,Positive*
%FSLAX46Y46*%
G04 Gerber Fmt 4.6, Leading zero omitted, Abs format (unit mm)*
G04 Created by KiCad (PCBNEW 5.0.2+dfsg1-1~bpo9+1) date Tue 26 Jan 2021 15:48:09 GMT*
%MOMM*%
%LPD*%
G01*
G04 APERTURE LIST*
%ADD10C,0.250000*%
%ADD11C,0.150000*%
G04 APERTURE END LIST*
D10*
X127400952Y-76367142D02*
X127353333Y-76414761D01*
X127210476Y-76462380D01*
X127115238Y-76462380D01*
X126972380Y-76414761D01*
X126877142Y-76319523D01*
X126829523Y-76224285D01*
X126781904Y-76033809D01*
X126781904Y-75890952D01*
X126829523Y-75700476D01*
X126877142Y-75605238D01*
X126972380Y-75510000D01*
X127115238Y-75462380D01*
X127210476Y-75462380D01*
X127353333Y-75510000D01*
X127400952Y-75557619D01*
X128258095Y-75795714D02*
X128258095Y-76462380D01*
X127829523Y-75795714D02*
X127829523Y-76319523D01*
X127877142Y-76414761D01*
X127972380Y-76462380D01*
X128115238Y-76462380D01*
X128210476Y-76414761D01*
X128258095Y-76367142D01*
X128591428Y-75795714D02*
X128972380Y-75795714D01*
X128734285Y-75462380D02*
X128734285Y-76319523D01*
X128781904Y-76414761D01*
X128877142Y-76462380D01*
X128972380Y-76462380D01*
X129448571Y-76462380D02*
X129353333Y-76414761D01*
X129305714Y-76367142D01*
X129258095Y-76271904D01*
X129258095Y-75986190D01*
X129305714Y-75890952D01*
X129353333Y-75843333D01*
X129448571Y-75795714D01*
X129591428Y-75795714D01*
X129686666Y-75843333D01*
X129734285Y-75890952D01*
X129781904Y-75986190D01*
X129781904Y-76271904D01*
X129734285Y-76367142D01*
X129686666Y-76414761D01*
X129591428Y-76462380D01*
X129448571Y-76462380D01*
X130639047Y-75795714D02*
X130639047Y-76462380D01*
X130210476Y-75795714D02*
X130210476Y-76319523D01*
X130258095Y-76414761D01*
X130353333Y-76462380D01*
X130496190Y-76462380D01*
X130591428Y-76414761D01*
X130639047Y-76367142D01*
X130972380Y-75795714D02*
X131353333Y-75795714D01*
X131115238Y-75462380D02*
X131115238Y-76319523D01*
X131162857Y-76414761D01*
X131258095Y-76462380D01*
X131353333Y-76462380D01*
D11*
G04 #@! TO.C,U2*
X132799200Y-79317200D02*
X132799200Y-73312640D01*
X125285880Y-79317200D02*
X125285880Y-73312640D01*
X125285880Y-73307560D02*
X132799200Y-73307560D01*
X125285880Y-79332440D02*
X132799200Y-79332440D01*
X133086860Y-72048740D02*
X133182099Y-72048740D01*
X133277337Y-72096360D01*
X133324956Y-72143979D01*
X133372575Y-72239217D01*
X133420194Y-72429693D01*
X133420194Y-72667788D01*
X133372575Y-72858264D01*
X133324956Y-72953502D01*
X133277337Y-73001121D01*
X133182099Y-73048740D01*
X133086860Y-73048740D01*
X132991622Y-73001121D01*
X132944003Y-72953502D01*
X132896384Y-72858264D01*
X132848765Y-72667788D01*
X132848765Y-72429693D01*
X132896384Y-72239217D01*
X132944003Y-72143979D01*
X132991622Y-72096360D01*
X133086860Y-72048740D01*
G04 #@! TO.C,D1*
X136355580Y-76645560D02*
X135355580Y-76645560D01*
X135355580Y-76407464D01*
X135403200Y-76264607D01*
X135498438Y-76169369D01*
X135593676Y-76121750D01*
X135784152Y-76074131D01*
X135927009Y-76074131D01*
X136117485Y-76121750D01*
X136212723Y-76169369D01*
X136307961Y-76264607D01*
X136355580Y-76407464D01*
X136355580Y-76645560D01*
X136355580Y-75645560D02*
X135355580Y-75645560D01*
X135355580Y-79049373D02*
X136355580Y-78716040D01*
X135355580Y-78382706D01*
X135403200Y-73287775D02*
X135355580Y-73383013D01*
X135355580Y-73525870D01*
X135403200Y-73668727D01*
X135498438Y-73763965D01*
X135593676Y-73811584D01*
X135784152Y-73859203D01*
X135927009Y-73859203D01*
X136117485Y-73811584D01*
X136212723Y-73763965D01*
X136307961Y-73668727D01*
X136355580Y-73525870D01*
X136355580Y-73430632D01*
X136307961Y-73287775D01*
X136260342Y-73240156D01*
X135927009Y-73240156D01*
X135927009Y-73430632D01*
G04 #@! TO.C,U1*
X120128068Y-77890952D02*
X120128068Y-77129047D01*
X120128068Y-75356032D02*
X120128068Y-74594127D01*
X120509020Y-74975080D02*
X119747116Y-74975080D01*
G04 #@! TD*
M02*
