G04 #@! TF.GenerationSoftware,KiCad,Pcbnew,5.0.2+dfsg1-1~bpo9+1*
G04 #@! TF.CreationDate,2021-01-26T15:48:09+00:00*
G04 #@! TF.ProjectId,attiny_ws2812_strip,61747469-6e79-45f7-9773-323831325f73,rev?*
G04 #@! TF.SameCoordinates,Original*
G04 #@! TF.FileFunction,Soldermask,Top*
G04 #@! TF.FilePolarity,Negative*
%FSLAX46Y46*%
G04 Gerber Fmt 4.6, Leading zero omitted, Abs format (unit mm)*
G04 Created by KiCad (PCBNEW 5.0.2+dfsg1-1~bpo9+1) date Tue 26 Jan 2021 15:48:09 GMT*
%MOMM*%
%LPD*%
G01*
G04 APERTURE LIST*
%ADD10C,0.100000*%
G04 APERTURE END LIST*
D10*
G36*
X139791000Y-79201000D02*
X136689000Y-79201000D01*
X136689000Y-78099000D01*
X139791000Y-78099000D01*
X139791000Y-79201000D01*
X139791000Y-79201000D01*
G37*
G36*
X134640000Y-78601000D02*
X132838000Y-78601000D01*
X132838000Y-77849000D01*
X134640000Y-77849000D01*
X134640000Y-78601000D01*
X134640000Y-78601000D01*
G37*
G36*
X125236920Y-78601000D02*
X123434920Y-78601000D01*
X123434920Y-77849000D01*
X125236920Y-77849000D01*
X125236920Y-78601000D01*
X125236920Y-78601000D01*
G37*
G36*
X121788228Y-76691703D02*
X121943100Y-76755853D01*
X122082481Y-76848985D01*
X122201015Y-76967519D01*
X122294147Y-77106900D01*
X122358297Y-77261772D01*
X122391000Y-77426184D01*
X122391000Y-77593816D01*
X122358297Y-77758228D01*
X122294147Y-77913100D01*
X122201015Y-78052481D01*
X122082481Y-78171015D01*
X121943100Y-78264147D01*
X121788228Y-78328297D01*
X121623816Y-78361000D01*
X121456184Y-78361000D01*
X121291772Y-78328297D01*
X121136900Y-78264147D01*
X120997519Y-78171015D01*
X120878985Y-78052481D01*
X120785853Y-77913100D01*
X120721703Y-77758228D01*
X120689000Y-77593816D01*
X120689000Y-77426184D01*
X120721703Y-77261772D01*
X120785853Y-77106900D01*
X120878985Y-76967519D01*
X120997519Y-76848985D01*
X121136900Y-76755853D01*
X121291772Y-76691703D01*
X121456184Y-76659000D01*
X121623816Y-76659000D01*
X121788228Y-76691703D01*
X121788228Y-76691703D01*
G37*
G36*
X134640000Y-77331000D02*
X132838000Y-77331000D01*
X132838000Y-76579000D01*
X134640000Y-76579000D01*
X134640000Y-77331000D01*
X134640000Y-77331000D01*
G37*
G36*
X125236920Y-77331000D02*
X123434920Y-77331000D01*
X123434920Y-76579000D01*
X125236920Y-76579000D01*
X125236920Y-77331000D01*
X125236920Y-77331000D01*
G37*
G36*
X139791000Y-76661000D02*
X136689000Y-76661000D01*
X136689000Y-75559000D01*
X139791000Y-75559000D01*
X139791000Y-76661000D01*
X139791000Y-76661000D01*
G37*
G36*
X125242000Y-76061000D02*
X123440000Y-76061000D01*
X123440000Y-75309000D01*
X125242000Y-75309000D01*
X125242000Y-76061000D01*
X125242000Y-76061000D01*
G37*
G36*
X134640000Y-76061000D02*
X132838000Y-76061000D01*
X132838000Y-75309000D01*
X134640000Y-75309000D01*
X134640000Y-76061000D01*
X134640000Y-76061000D01*
G37*
G36*
X121788228Y-74151703D02*
X121943100Y-74215853D01*
X122082481Y-74308985D01*
X122201015Y-74427519D01*
X122294147Y-74566900D01*
X122358297Y-74721772D01*
X122391000Y-74886184D01*
X122391000Y-75053816D01*
X122358297Y-75218228D01*
X122294147Y-75373100D01*
X122201015Y-75512481D01*
X122082481Y-75631015D01*
X121943100Y-75724147D01*
X121788228Y-75788297D01*
X121623816Y-75821000D01*
X121456184Y-75821000D01*
X121291772Y-75788297D01*
X121136900Y-75724147D01*
X120997519Y-75631015D01*
X120878985Y-75512481D01*
X120785853Y-75373100D01*
X120721703Y-75218228D01*
X120689000Y-75053816D01*
X120689000Y-74886184D01*
X120721703Y-74721772D01*
X120785853Y-74566900D01*
X120878985Y-74427519D01*
X120997519Y-74308985D01*
X121136900Y-74215853D01*
X121291772Y-74151703D01*
X121456184Y-74119000D01*
X121623816Y-74119000D01*
X121788228Y-74151703D01*
X121788228Y-74151703D01*
G37*
G36*
X125242000Y-74791000D02*
X123440000Y-74791000D01*
X123440000Y-74039000D01*
X125242000Y-74039000D01*
X125242000Y-74791000D01*
X125242000Y-74791000D01*
G37*
G36*
X134640000Y-74785920D02*
X132838000Y-74785920D01*
X132838000Y-74033920D01*
X134640000Y-74033920D01*
X134640000Y-74785920D01*
X134640000Y-74785920D01*
G37*
G36*
X139791000Y-74121000D02*
X136689000Y-74121000D01*
X136689000Y-73019000D01*
X139791000Y-73019000D01*
X139791000Y-74121000D01*
X139791000Y-74121000D01*
G37*
M02*
