G04 #@! TF.GenerationSoftware,KiCad,Pcbnew,5.0.2+dfsg1-1~bpo9+1*
G04 #@! TF.CreationDate,2021-01-26T15:48:09+00:00*
G04 #@! TF.ProjectId,attiny_ws2812_strip,61747469-6e79-45f7-9773-323831325f73,rev?*
G04 #@! TF.SameCoordinates,Original*
G04 #@! TF.FileFunction,Legend,Bot*
G04 #@! TF.FilePolarity,Positive*
%FSLAX46Y46*%
G04 Gerber Fmt 4.6, Leading zero omitted, Abs format (unit mm)*
G04 Created by KiCad (PCBNEW 5.0.2+dfsg1-1~bpo9+1) date Tue 26 Jan 2021 15:48:09 GMT*
%MOMM*%
%LPD*%
G01*
G04 APERTURE LIST*
%ADD10C,0.250000*%
%ADD11C,0.150000*%
G04 APERTURE END LIST*
D10*
X134197619Y-72298571D02*
X134530952Y-72298571D01*
X134530952Y-72822380D02*
X134530952Y-71822380D01*
X134054761Y-71822380D01*
X133245238Y-72822380D02*
X133245238Y-72298571D01*
X133292857Y-72203333D01*
X133388095Y-72155714D01*
X133578571Y-72155714D01*
X133673809Y-72203333D01*
X133245238Y-72774761D02*
X133340476Y-72822380D01*
X133578571Y-72822380D01*
X133673809Y-72774761D01*
X133721428Y-72679523D01*
X133721428Y-72584285D01*
X133673809Y-72489047D01*
X133578571Y-72441428D01*
X133340476Y-72441428D01*
X133245238Y-72393809D01*
X132340476Y-72774761D02*
X132435714Y-72822380D01*
X132626190Y-72822380D01*
X132721428Y-72774761D01*
X132769047Y-72727142D01*
X132816666Y-72631904D01*
X132816666Y-72346190D01*
X132769047Y-72250952D01*
X132721428Y-72203333D01*
X132626190Y-72155714D01*
X132435714Y-72155714D01*
X132340476Y-72203333D01*
X131530952Y-72774761D02*
X131626190Y-72822380D01*
X131816666Y-72822380D01*
X131911904Y-72774761D01*
X131959523Y-72679523D01*
X131959523Y-72298571D01*
X131911904Y-72203333D01*
X131816666Y-72155714D01*
X131626190Y-72155714D01*
X131530952Y-72203333D01*
X131483333Y-72298571D01*
X131483333Y-72393809D01*
X131959523Y-72489047D01*
X130911904Y-72822380D02*
X131007142Y-72774761D01*
X131054761Y-72679523D01*
X131054761Y-71822380D01*
X130150000Y-72774761D02*
X130245238Y-72822380D01*
X130435714Y-72822380D01*
X130530952Y-72774761D01*
X130578571Y-72679523D01*
X130578571Y-72298571D01*
X130530952Y-72203333D01*
X130435714Y-72155714D01*
X130245238Y-72155714D01*
X130150000Y-72203333D01*
X130102380Y-72298571D01*
X130102380Y-72393809D01*
X130578571Y-72489047D01*
X129721428Y-72774761D02*
X129626190Y-72822380D01*
X129435714Y-72822380D01*
X129340476Y-72774761D01*
X129292857Y-72679523D01*
X129292857Y-72631904D01*
X129340476Y-72536666D01*
X129435714Y-72489047D01*
X129578571Y-72489047D01*
X129673809Y-72441428D01*
X129721428Y-72346190D01*
X129721428Y-72298571D01*
X129673809Y-72203333D01*
X129578571Y-72155714D01*
X129435714Y-72155714D01*
X129340476Y-72203333D01*
X128911904Y-72774761D02*
X128816666Y-72822380D01*
X128626190Y-72822380D01*
X128530952Y-72774761D01*
X128483333Y-72679523D01*
X128483333Y-72631904D01*
X128530952Y-72536666D01*
X128626190Y-72489047D01*
X128769047Y-72489047D01*
X128864285Y-72441428D01*
X128911904Y-72346190D01*
X128911904Y-72298571D01*
X128864285Y-72203333D01*
X128769047Y-72155714D01*
X128626190Y-72155714D01*
X128530952Y-72203333D01*
X128197619Y-72155714D02*
X127816666Y-72155714D01*
X128054761Y-71822380D02*
X128054761Y-72679523D01*
X128007142Y-72774761D01*
X127911904Y-72822380D01*
X127816666Y-72822380D01*
X127102380Y-72774761D02*
X127197619Y-72822380D01*
X127388095Y-72822380D01*
X127483333Y-72774761D01*
X127530952Y-72679523D01*
X127530952Y-72298571D01*
X127483333Y-72203333D01*
X127388095Y-72155714D01*
X127197619Y-72155714D01*
X127102380Y-72203333D01*
X127054761Y-72298571D01*
X127054761Y-72393809D01*
X127530952Y-72489047D01*
X126197619Y-72774761D02*
X126292857Y-72822380D01*
X126483333Y-72822380D01*
X126578571Y-72774761D01*
X126626190Y-72727142D01*
X126673809Y-72631904D01*
X126673809Y-72346190D01*
X126626190Y-72250952D01*
X126578571Y-72203333D01*
X126483333Y-72155714D01*
X126292857Y-72155714D01*
X126197619Y-72203333D01*
X125769047Y-72822380D02*
X125769047Y-71822380D01*
X125340476Y-72822380D02*
X125340476Y-72298571D01*
X125388095Y-72203333D01*
X125483333Y-72155714D01*
X125626190Y-72155714D01*
X125721428Y-72203333D01*
X125769047Y-72250952D01*
X124150000Y-71917619D02*
X124102380Y-71870000D01*
X124007142Y-71822380D01*
X123769047Y-71822380D01*
X123673809Y-71870000D01*
X123626190Y-71917619D01*
X123578571Y-72012857D01*
X123578571Y-72108095D01*
X123626190Y-72250952D01*
X124197619Y-72822380D01*
X123578571Y-72822380D01*
X122959523Y-71822380D02*
X122864285Y-71822380D01*
X122769047Y-71870000D01*
X122721428Y-71917619D01*
X122673809Y-72012857D01*
X122626190Y-72203333D01*
X122626190Y-72441428D01*
X122673809Y-72631904D01*
X122721428Y-72727142D01*
X122769047Y-72774761D01*
X122864285Y-72822380D01*
X122959523Y-72822380D01*
X123054761Y-72774761D01*
X123102380Y-72727142D01*
X123150000Y-72631904D01*
X123197619Y-72441428D01*
X123197619Y-72203333D01*
X123150000Y-72012857D01*
X123102380Y-71917619D01*
X123054761Y-71870000D01*
X122959523Y-71822380D01*
X122245238Y-71917619D02*
X122197619Y-71870000D01*
X122102380Y-71822380D01*
X121864285Y-71822380D01*
X121769047Y-71870000D01*
X121721428Y-71917619D01*
X121673809Y-72012857D01*
X121673809Y-72108095D01*
X121721428Y-72250952D01*
X122292857Y-72822380D01*
X121673809Y-72822380D01*
X120721428Y-72822380D02*
X121292857Y-72822380D01*
X121007142Y-72822380D02*
X121007142Y-71822380D01*
X121102380Y-71965238D01*
X121197619Y-72060476D01*
X121292857Y-72108095D01*
G04 #@! TO.C,U2*
D11*
X133182099Y-72048740D02*
X133086860Y-72048740D01*
X132991622Y-72096360D01*
X132944003Y-72143979D01*
X132896384Y-72239217D01*
X132848765Y-72429693D01*
X132848765Y-72667788D01*
X132896384Y-72858264D01*
X132944003Y-72953502D01*
X132991622Y-73001121D01*
X133086860Y-73048740D01*
X133182099Y-73048740D01*
X133277337Y-73001121D01*
X133324956Y-72953502D01*
X133372575Y-72858264D01*
X133420194Y-72667788D01*
X133420194Y-72429693D01*
X133372575Y-72239217D01*
X133324956Y-72143979D01*
X133277337Y-72096360D01*
X133182099Y-72048740D01*
G04 #@! TD*
M02*
