G04 #@! TF.GenerationSoftware,KiCad,Pcbnew,5.0.2+dfsg1-1~bpo9+1*
G04 #@! TF.CreationDate,2021-01-31T11:02:44+00:00*
G04 #@! TF.ProjectId,attiny85_dipswitch_breakout,61747469-6e79-4383-955f-646970737769,rev?*
G04 #@! TF.SameCoordinates,Original*
G04 #@! TF.FileFunction,Legend,Bot*
G04 #@! TF.FilePolarity,Positive*
%FSLAX46Y46*%
G04 Gerber Fmt 4.6, Leading zero omitted, Abs format (unit mm)*
G04 Created by KiCad (PCBNEW 5.0.2+dfsg1-1~bpo9+1) date Sun 31 Jan 2021 11:02:44 GMT*
%MOMM*%
%LPD*%
G01*
G04 APERTURE LIST*
%ADD10C,0.250000*%
G04 APERTURE END LIST*
D10*
X148502857Y-76828571D02*
X148145714Y-78328571D01*
X147860000Y-77257142D01*
X147574285Y-78328571D01*
X147217142Y-76828571D01*
X146717142Y-78257142D02*
X146502857Y-78328571D01*
X146145714Y-78328571D01*
X146002857Y-78257142D01*
X145931428Y-78185714D01*
X145860000Y-78042857D01*
X145860000Y-77900000D01*
X145931428Y-77757142D01*
X146002857Y-77685714D01*
X146145714Y-77614285D01*
X146431428Y-77542857D01*
X146574285Y-77471428D01*
X146645714Y-77400000D01*
X146717142Y-77257142D01*
X146717142Y-77114285D01*
X146645714Y-76971428D01*
X146574285Y-76900000D01*
X146431428Y-76828571D01*
X146074285Y-76828571D01*
X145860000Y-76900000D01*
X145288571Y-76971428D02*
X145217142Y-76900000D01*
X145074285Y-76828571D01*
X144717142Y-76828571D01*
X144574285Y-76900000D01*
X144502857Y-76971428D01*
X144431428Y-77114285D01*
X144431428Y-77257142D01*
X144502857Y-77471428D01*
X145360000Y-78328571D01*
X144431428Y-78328571D01*
X143574285Y-77471428D02*
X143717142Y-77400000D01*
X143788571Y-77328571D01*
X143860000Y-77185714D01*
X143860000Y-77114285D01*
X143788571Y-76971428D01*
X143717142Y-76900000D01*
X143574285Y-76828571D01*
X143288571Y-76828571D01*
X143145714Y-76900000D01*
X143074285Y-76971428D01*
X143002857Y-77114285D01*
X143002857Y-77185714D01*
X143074285Y-77328571D01*
X143145714Y-77400000D01*
X143288571Y-77471428D01*
X143574285Y-77471428D01*
X143717142Y-77542857D01*
X143788571Y-77614285D01*
X143860000Y-77757142D01*
X143860000Y-78042857D01*
X143788571Y-78185714D01*
X143717142Y-78257142D01*
X143574285Y-78328571D01*
X143288571Y-78328571D01*
X143145714Y-78257142D01*
X143074285Y-78185714D01*
X143002857Y-78042857D01*
X143002857Y-77757142D01*
X143074285Y-77614285D01*
X143145714Y-77542857D01*
X143288571Y-77471428D01*
X141574285Y-78328571D02*
X142431428Y-78328571D01*
X142002857Y-78328571D02*
X142002857Y-76828571D01*
X142145714Y-77042857D01*
X142288571Y-77185714D01*
X142431428Y-77257142D01*
X141002857Y-76971428D02*
X140931428Y-76900000D01*
X140788571Y-76828571D01*
X140431428Y-76828571D01*
X140288571Y-76900000D01*
X140217142Y-76971428D01*
X140145714Y-77114285D01*
X140145714Y-77257142D01*
X140217142Y-77471428D01*
X141074285Y-78328571D01*
X140145714Y-78328571D01*
X139860000Y-78471428D02*
X138717142Y-78471428D01*
X138431428Y-78257142D02*
X138288571Y-78328571D01*
X138002857Y-78328571D01*
X137860000Y-78257142D01*
X137788571Y-78114285D01*
X137788571Y-78042857D01*
X137860000Y-77900000D01*
X138002857Y-77828571D01*
X138217142Y-77828571D01*
X138360000Y-77757142D01*
X138431428Y-77614285D01*
X138431428Y-77542857D01*
X138360000Y-77400000D01*
X138217142Y-77328571D01*
X138002857Y-77328571D01*
X137860000Y-77400000D01*
X137360000Y-77328571D02*
X136788571Y-77328571D01*
X137145714Y-76828571D02*
X137145714Y-78114285D01*
X137074285Y-78257142D01*
X136931428Y-78328571D01*
X136788571Y-78328571D01*
X136288571Y-78328571D02*
X136288571Y-77328571D01*
X136288571Y-77614285D02*
X136217142Y-77471428D01*
X136145714Y-77400000D01*
X136002857Y-77328571D01*
X135860000Y-77328571D01*
X135360000Y-78328571D02*
X135360000Y-77328571D01*
X135360000Y-76828571D02*
X135431428Y-76900000D01*
X135360000Y-76971428D01*
X135288571Y-76900000D01*
X135360000Y-76828571D01*
X135360000Y-76971428D01*
X134645714Y-77328571D02*
X134645714Y-78828571D01*
X134645714Y-77400000D02*
X134502857Y-77328571D01*
X134217142Y-77328571D01*
X134074285Y-77400000D01*
X134002857Y-77471428D01*
X133931428Y-77614285D01*
X133931428Y-78042857D01*
X134002857Y-78185714D01*
X134074285Y-78257142D01*
X134217142Y-78328571D01*
X134502857Y-78328571D01*
X134645714Y-78257142D01*
X133645714Y-78471428D02*
X132502857Y-78471428D01*
X132217142Y-78257142D02*
X132074285Y-78328571D01*
X131788571Y-78328571D01*
X131645714Y-78257142D01*
X131574285Y-78114285D01*
X131574285Y-78042857D01*
X131645714Y-77900000D01*
X131788571Y-77828571D01*
X132002857Y-77828571D01*
X132145714Y-77757142D01*
X132217142Y-77614285D01*
X132217142Y-77542857D01*
X132145714Y-77400000D01*
X132002857Y-77328571D01*
X131788571Y-77328571D01*
X131645714Y-77400000D01*
X131074285Y-77328571D02*
X130788571Y-78328571D01*
X130502857Y-77614285D01*
X130217142Y-78328571D01*
X129931428Y-77328571D01*
X129360000Y-78328571D02*
X129360000Y-77328571D01*
X129360000Y-76828571D02*
X129431428Y-76900000D01*
X129360000Y-76971428D01*
X129288571Y-76900000D01*
X129360000Y-76828571D01*
X129360000Y-76971428D01*
X128860000Y-77328571D02*
X128288571Y-77328571D01*
X128645714Y-76828571D02*
X128645714Y-78114285D01*
X128574285Y-78257142D01*
X128431428Y-78328571D01*
X128288571Y-78328571D01*
X127145714Y-78257142D02*
X127288571Y-78328571D01*
X127574285Y-78328571D01*
X127717142Y-78257142D01*
X127788571Y-78185714D01*
X127860000Y-78042857D01*
X127860000Y-77614285D01*
X127788571Y-77471428D01*
X127717142Y-77400000D01*
X127574285Y-77328571D01*
X127288571Y-77328571D01*
X127145714Y-77400000D01*
X126502857Y-78328571D02*
X126502857Y-76828571D01*
X125860000Y-78328571D02*
X125860000Y-77542857D01*
X125931428Y-77400000D01*
X126074285Y-77328571D01*
X126288571Y-77328571D01*
X126431428Y-77400000D01*
X126502857Y-77471428D01*
X146571428Y-80172857D02*
X147071428Y-80172857D01*
X147071428Y-80958571D02*
X147071428Y-79458571D01*
X146357142Y-79458571D01*
X145142857Y-80958571D02*
X145142857Y-80172857D01*
X145214285Y-80030000D01*
X145357142Y-79958571D01*
X145642857Y-79958571D01*
X145785714Y-80030000D01*
X145142857Y-80887142D02*
X145285714Y-80958571D01*
X145642857Y-80958571D01*
X145785714Y-80887142D01*
X145857142Y-80744285D01*
X145857142Y-80601428D01*
X145785714Y-80458571D01*
X145642857Y-80387142D01*
X145285714Y-80387142D01*
X145142857Y-80315714D01*
X143785714Y-80887142D02*
X143928571Y-80958571D01*
X144214285Y-80958571D01*
X144357142Y-80887142D01*
X144428571Y-80815714D01*
X144500000Y-80672857D01*
X144500000Y-80244285D01*
X144428571Y-80101428D01*
X144357142Y-80030000D01*
X144214285Y-79958571D01*
X143928571Y-79958571D01*
X143785714Y-80030000D01*
X142571428Y-80887142D02*
X142714285Y-80958571D01*
X143000000Y-80958571D01*
X143142857Y-80887142D01*
X143214285Y-80744285D01*
X143214285Y-80172857D01*
X143142857Y-80030000D01*
X143000000Y-79958571D01*
X142714285Y-79958571D01*
X142571428Y-80030000D01*
X142500000Y-80172857D01*
X142500000Y-80315714D01*
X143214285Y-80458571D01*
X141642857Y-80958571D02*
X141785714Y-80887142D01*
X141857142Y-80744285D01*
X141857142Y-79458571D01*
X140500000Y-80887142D02*
X140642857Y-80958571D01*
X140928571Y-80958571D01*
X141071428Y-80887142D01*
X141142857Y-80744285D01*
X141142857Y-80172857D01*
X141071428Y-80030000D01*
X140928571Y-79958571D01*
X140642857Y-79958571D01*
X140500000Y-80030000D01*
X140428571Y-80172857D01*
X140428571Y-80315714D01*
X141142857Y-80458571D01*
X139857142Y-80887142D02*
X139714285Y-80958571D01*
X139428571Y-80958571D01*
X139285714Y-80887142D01*
X139214285Y-80744285D01*
X139214285Y-80672857D01*
X139285714Y-80530000D01*
X139428571Y-80458571D01*
X139642857Y-80458571D01*
X139785714Y-80387142D01*
X139857142Y-80244285D01*
X139857142Y-80172857D01*
X139785714Y-80030000D01*
X139642857Y-79958571D01*
X139428571Y-79958571D01*
X139285714Y-80030000D01*
X138642857Y-80887142D02*
X138500000Y-80958571D01*
X138214285Y-80958571D01*
X138071428Y-80887142D01*
X138000000Y-80744285D01*
X138000000Y-80672857D01*
X138071428Y-80530000D01*
X138214285Y-80458571D01*
X138428571Y-80458571D01*
X138571428Y-80387142D01*
X138642857Y-80244285D01*
X138642857Y-80172857D01*
X138571428Y-80030000D01*
X138428571Y-79958571D01*
X138214285Y-79958571D01*
X138071428Y-80030000D01*
X137571428Y-79958571D02*
X137000000Y-79958571D01*
X137357142Y-79458571D02*
X137357142Y-80744285D01*
X137285714Y-80887142D01*
X137142857Y-80958571D01*
X137000000Y-80958571D01*
X135928571Y-80887142D02*
X136071428Y-80958571D01*
X136357142Y-80958571D01*
X136500000Y-80887142D01*
X136571428Y-80744285D01*
X136571428Y-80172857D01*
X136500000Y-80030000D01*
X136357142Y-79958571D01*
X136071428Y-79958571D01*
X135928571Y-80030000D01*
X135857142Y-80172857D01*
X135857142Y-80315714D01*
X136571428Y-80458571D01*
X134571428Y-80887142D02*
X134714285Y-80958571D01*
X135000000Y-80958571D01*
X135142857Y-80887142D01*
X135214285Y-80815714D01*
X135285714Y-80672857D01*
X135285714Y-80244285D01*
X135214285Y-80101428D01*
X135142857Y-80030000D01*
X135000000Y-79958571D01*
X134714285Y-79958571D01*
X134571428Y-80030000D01*
X133928571Y-80958571D02*
X133928571Y-79458571D01*
X133285714Y-80958571D02*
X133285714Y-80172857D01*
X133357142Y-80030000D01*
X133499999Y-79958571D01*
X133714285Y-79958571D01*
X133857142Y-80030000D01*
X133928571Y-80101428D01*
X131499999Y-79601428D02*
X131428571Y-79530000D01*
X131285714Y-79458571D01*
X130928571Y-79458571D01*
X130785714Y-79530000D01*
X130714285Y-79601428D01*
X130642857Y-79744285D01*
X130642857Y-79887142D01*
X130714285Y-80101428D01*
X131571428Y-80958571D01*
X130642857Y-80958571D01*
X129714285Y-79458571D02*
X129571428Y-79458571D01*
X129428571Y-79530000D01*
X129357142Y-79601428D01*
X129285714Y-79744285D01*
X129214285Y-80030000D01*
X129214285Y-80387142D01*
X129285714Y-80672857D01*
X129357142Y-80815714D01*
X129428571Y-80887142D01*
X129571428Y-80958571D01*
X129714285Y-80958571D01*
X129857142Y-80887142D01*
X129928571Y-80815714D01*
X129999999Y-80672857D01*
X130071428Y-80387142D01*
X130071428Y-80030000D01*
X129999999Y-79744285D01*
X129928571Y-79601428D01*
X129857142Y-79530000D01*
X129714285Y-79458571D01*
X128642857Y-79601428D02*
X128571428Y-79530000D01*
X128428571Y-79458571D01*
X128071428Y-79458571D01*
X127928571Y-79530000D01*
X127857142Y-79601428D01*
X127785714Y-79744285D01*
X127785714Y-79887142D01*
X127857142Y-80101428D01*
X128714285Y-80958571D01*
X127785714Y-80958571D01*
X126357142Y-80958571D02*
X127214285Y-80958571D01*
X126785714Y-80958571D02*
X126785714Y-79458571D01*
X126928571Y-79672857D01*
X127071428Y-79815714D01*
X127214285Y-79887142D01*
M02*
