M48
METRIC,TZ
T1C0.400
T2C1.000
T3C2.400
%
G90
G05
T1
X125040Y-79290
X125310Y-84360
X132560Y-80610
X135260Y-80670
X137200Y-80730
X143350Y-72010
X146000Y-85130
X147760Y-76730
X148520Y-80580
X149960Y-75330
T2
X152510Y-75520
X152510Y-78060
X152510Y-80600
X155050Y-75520
X155050Y-78060
X155050Y-80600
X160010Y-74959
X160010Y-77422
X160010Y-79658
X160010Y-82121
T3
X161803Y-84560
X161808Y-72546
T0
M30
