G04 #@! TF.GenerationSoftware,KiCad,Pcbnew,5.0.2+dfsg1-1~bpo9+1*
G04 #@! TF.CreationDate,2021-01-31T11:02:44+00:00*
G04 #@! TF.ProjectId,attiny85_dipswitch_breakout,61747469-6e79-4383-955f-646970737769,rev?*
G04 #@! TF.SameCoordinates,Original*
G04 #@! TF.FileFunction,Copper,L1,Top*
G04 #@! TF.FilePolarity,Positive*
%FSLAX46Y46*%
G04 Gerber Fmt 4.6, Leading zero omitted, Abs format (unit mm)*
G04 Created by KiCad (PCBNEW 5.0.2+dfsg1-1~bpo9+1) date Sun 31 Jan 2021 11:02:44 GMT*
%MOMM*%
%LPD*%
G01*
G04 APERTURE LIST*
G04 #@! TA.AperFunction,SMDPad,CuDef*
%ADD10R,1.150000X2.500000*%
G04 #@! TD*
G04 #@! TA.AperFunction,ComponentPad*
%ADD11C,1.600000*%
G04 #@! TD*
G04 #@! TA.AperFunction,ComponentPad*
%ADD12C,3.000000*%
G04 #@! TD*
G04 #@! TA.AperFunction,SMDPad,CuDef*
%ADD13R,0.650000X1.700000*%
G04 #@! TD*
G04 #@! TA.AperFunction,SMDPad,CuDef*
%ADD14R,1.524000X1.524000*%
G04 #@! TD*
G04 #@! TA.AperFunction,SMDPad,CuDef*
%ADD15R,3.000000X1.000000*%
G04 #@! TD*
G04 #@! TA.AperFunction,ViaPad*
%ADD16C,0.800000*%
G04 #@! TD*
G04 #@! TA.AperFunction,Conductor*
%ADD17C,0.250000*%
G04 #@! TD*
G04 APERTURE END LIST*
D10*
G04 #@! TO.P,U3,1*
G04 #@! TO.N,Net-(D1-Pad3)*
X141132700Y-83160100D03*
G04 #@! TO.P,U3,2*
X138580000Y-83160100D03*
G04 #@! TO.P,U3,3*
X136045080Y-83160100D03*
G04 #@! TO.P,U3,4*
X133502540Y-83160100D03*
G04 #@! TO.P,U3,5*
G04 #@! TO.N,Net-(U1-Pad2)*
X133502540Y-73942440D03*
G04 #@! TO.P,U3,6*
G04 #@! TO.N,Net-(J2-Pad4)*
X136040000Y-73942440D03*
G04 #@! TO.P,U3,7*
G04 #@! TO.N,Net-(J2-Pad1)*
X138580000Y-73942440D03*
G04 #@! TO.P,U3,8*
G04 #@! TO.N,Net-(J2-Pad3)*
X141120000Y-73942440D03*
G04 #@! TD*
D11*
G04 #@! TO.P,J1,1*
G04 #@! TO.N,Net-(D1-Pad1)*
X160010000Y-74958600D03*
G04 #@! TO.P,J1,2*
G04 #@! TO.N,Net-(J1-Pad2)*
X160010000Y-77422400D03*
G04 #@! TO.P,J1,3*
G04 #@! TO.N,Net-(J1-Pad3)*
X160010000Y-79657600D03*
G04 #@! TO.P,J1,4*
G04 #@! TO.N,Net-(D1-Pad3)*
X160010000Y-82121400D03*
D12*
X161803240Y-84559800D03*
X161808320Y-72545600D03*
G04 #@! TD*
D13*
G04 #@! TO.P,U1,1*
G04 #@! TO.N,Net-(J2-Pad5)*
X144983200Y-82034400D03*
G04 #@! TO.P,U1,2*
G04 #@! TO.N,Net-(U1-Pad2)*
X146253200Y-82034400D03*
G04 #@! TO.P,U1,3*
G04 #@! TO.N,Net-(D1-Pad4)*
X147523200Y-82034400D03*
G04 #@! TO.P,U1,4*
G04 #@! TO.N,Net-(D1-Pad3)*
X148793200Y-82034400D03*
G04 #@! TO.P,U1,5*
G04 #@! TO.N,Net-(J2-Pad4)*
X148793200Y-74734400D03*
G04 #@! TO.P,U1,6*
G04 #@! TO.N,Net-(J2-Pad1)*
X147523200Y-74734400D03*
G04 #@! TO.P,U1,7*
G04 #@! TO.N,Net-(J2-Pad3)*
X146253200Y-74734400D03*
G04 #@! TO.P,U1,8*
G04 #@! TO.N,Net-(D1-Pad1)*
X144983200Y-74734400D03*
G04 #@! TD*
D14*
G04 #@! TO.P,SW1,1*
G04 #@! TO.N,Net-(D1-Pad3)*
X126660000Y-74820000D03*
G04 #@! TO.P,SW1,2*
G04 #@! TO.N,Net-(J2-Pad5)*
X126660000Y-82440000D03*
G04 #@! TD*
D11*
G04 #@! TO.P,J2,5*
G04 #@! TO.N,Net-(J2-Pad5)*
X155050000Y-75520000D03*
G04 #@! TO.P,J2,3*
G04 #@! TO.N,Net-(J2-Pad3)*
X155050000Y-78060000D03*
G04 #@! TO.P,J2,4*
G04 #@! TO.N,Net-(J2-Pad4)*
X152510000Y-78060000D03*
G04 #@! TO.P,J2,6*
G04 #@! TO.N,Net-(D1-Pad3)*
X152510000Y-75520000D03*
G04 #@! TO.P,J2,1*
G04 #@! TO.N,Net-(J2-Pad1)*
X155050000Y-80600000D03*
G04 #@! TO.P,J2,2*
G04 #@! TO.N,Net-(D1-Pad1)*
X152510000Y-80600000D03*
G04 #@! TD*
D15*
G04 #@! TO.P,D1,3*
G04 #@! TO.N,Net-(D1-Pad3)*
X121710000Y-81020000D03*
G04 #@! TO.P,D1,4*
G04 #@! TO.N,Net-(D1-Pad4)*
X121710000Y-78480000D03*
G04 #@! TO.P,D1,1*
G04 #@! TO.N,Net-(D1-Pad1)*
X121710000Y-75940000D03*
G04 #@! TD*
D16*
G04 #@! TO.N,Net-(D1-Pad4)*
X125310000Y-84360000D03*
X125040000Y-79290000D03*
G04 #@! TO.N,Net-(D1-Pad1)*
X143350000Y-72010000D03*
G04 #@! TO.N,Net-(D1-Pad3)*
X148520000Y-80580000D03*
X132560000Y-80610000D03*
X135260000Y-80670000D03*
X137200000Y-80730000D03*
G04 #@! TO.N,Net-(J2-Pad5)*
X146000000Y-85130000D03*
G04 #@! TO.N,Net-(J2-Pad4)*
X149960000Y-75330000D03*
G04 #@! TO.N,Net-(J2-Pad1)*
X147760000Y-76730000D03*
G04 #@! TD*
D17*
G04 #@! TO.N,Net-(D1-Pad4)*
X147523200Y-82034400D02*
X147523200Y-85096800D01*
X146644999Y-85975001D02*
X126945001Y-85975001D01*
X147523200Y-85096800D02*
X146644999Y-85975001D01*
X125330000Y-84360000D02*
X125310000Y-84360000D01*
X126945001Y-85975001D02*
X125330000Y-84360000D01*
X124230000Y-78480000D02*
X121710000Y-78480000D01*
X125040000Y-79290000D02*
X124230000Y-78480000D01*
G04 #@! TO.N,Net-(D1-Pad1)*
X147899000Y-70718600D02*
X147930000Y-70718600D01*
X144983200Y-73634400D02*
X147899000Y-70718600D01*
X144983200Y-74734400D02*
X144983200Y-73634400D01*
X142520000Y-71180000D02*
X142520000Y-70718600D01*
X143350000Y-72010000D02*
X142520000Y-71180000D01*
X159210001Y-74158601D02*
X158288601Y-74158601D01*
X160010000Y-74958600D02*
X159210001Y-74158601D01*
X158288601Y-74158601D02*
X154848600Y-70718600D01*
X147600000Y-70718600D02*
X147930000Y-70718600D01*
X154848600Y-70718600D02*
X147600000Y-70718600D01*
X121710000Y-75940000D02*
X122710000Y-75940000D01*
X142520000Y-70718600D02*
X142960000Y-70718600D01*
X127931400Y-70718600D02*
X142960000Y-70718600D01*
X122710000Y-75940000D02*
X127931400Y-70718600D01*
X142960000Y-70718600D02*
X147600000Y-70718600D01*
G04 #@! TO.N,Net-(U1-Pad2)*
X133502540Y-75442440D02*
X138380100Y-80320000D01*
X133502540Y-73942440D02*
X133502540Y-75442440D01*
X146253200Y-81509400D02*
X146253200Y-82034400D01*
X145063800Y-80320000D02*
X146253200Y-81509400D01*
X138380100Y-80320000D02*
X145063800Y-80320000D01*
G04 #@! TO.N,Net-(D1-Pad3)*
X148793200Y-80853200D02*
X148520000Y-80580000D01*
X148793200Y-82034400D02*
X148793200Y-80853200D01*
X133502540Y-81552540D02*
X132560000Y-80610000D01*
X133502540Y-83160100D02*
X133502540Y-81552540D01*
X136045080Y-81455080D02*
X135260000Y-80670000D01*
X136045080Y-83160100D02*
X136045080Y-81455080D01*
X137200000Y-81105100D02*
X137200000Y-80730000D01*
X138580000Y-82485100D02*
X137200000Y-81105100D01*
X138580000Y-83160100D02*
X138580000Y-82485100D01*
X141132700Y-82485100D02*
X139810000Y-81162400D01*
X141132700Y-83160100D02*
X141132700Y-82485100D01*
X137632400Y-81162400D02*
X137200000Y-80730000D01*
X139810000Y-81162400D02*
X137632400Y-81162400D01*
X148520000Y-79510000D02*
X148520000Y-80580000D01*
X152510000Y-75520000D02*
X148520000Y-79510000D01*
X158878630Y-82121400D02*
X158160030Y-82840000D01*
X160010000Y-82121400D02*
X158878630Y-82121400D01*
X158160030Y-82840000D02*
X151410000Y-82840000D01*
X151410000Y-82840000D02*
X150340000Y-81770000D01*
X150340000Y-81770000D02*
X150340000Y-81170000D01*
X150340000Y-81170000D02*
X149450000Y-80280000D01*
X149150000Y-80580000D02*
X148520000Y-80580000D01*
X149450000Y-80280000D02*
X149150000Y-80580000D01*
X161803240Y-72550680D02*
X161808320Y-72545600D01*
X161803240Y-84559800D02*
X161803240Y-72550680D01*
X160809999Y-83566559D02*
X161803240Y-84559800D01*
X160809999Y-82921399D02*
X160809999Y-83566559D01*
X160010000Y-82121400D02*
X160809999Y-82921399D01*
X126770000Y-74820000D02*
X126660000Y-74820000D01*
X132560000Y-80610000D02*
X126770000Y-74820000D01*
X122120000Y-80610000D02*
X121710000Y-81020000D01*
X132560000Y-80610000D02*
X122120000Y-80610000D01*
G04 #@! TO.N,Net-(J2-Pad5)*
X127672000Y-82440000D02*
X130302000Y-85070000D01*
X126660000Y-82440000D02*
X127672000Y-82440000D01*
X130302000Y-85070000D02*
X143970000Y-85070000D01*
X144983200Y-84056800D02*
X144983200Y-82034400D01*
X143970000Y-85070000D02*
X144983200Y-84056800D01*
X144983200Y-84113200D02*
X146000000Y-85130000D01*
X144983200Y-84056800D02*
X144983200Y-84113200D01*
G04 #@! TO.N,Net-(J2-Pad3)*
X141120000Y-74617440D02*
X142652560Y-76150000D01*
X141120000Y-73942440D02*
X141120000Y-74617440D01*
X146253200Y-75259400D02*
X146253200Y-74734400D01*
X145362600Y-76150000D02*
X146253200Y-75259400D01*
X142652560Y-76150000D02*
X145362600Y-76150000D01*
X156181370Y-78060000D02*
X157380000Y-76861370D01*
X155050000Y-78060000D02*
X156181370Y-78060000D01*
X157380000Y-76861370D02*
X157380000Y-75170000D01*
X157380000Y-75170000D02*
X155290000Y-73080000D01*
X146253200Y-74209400D02*
X146253200Y-74734400D01*
X147382600Y-73080000D02*
X146253200Y-74209400D01*
X155290000Y-73080000D02*
X147382600Y-73080000D01*
G04 #@! TO.N,Net-(J2-Pad4)*
X136040000Y-74617440D02*
X139822560Y-78400000D01*
X136040000Y-73942440D02*
X136040000Y-74617440D01*
X139822560Y-78400000D02*
X147230000Y-78400000D01*
X148793200Y-76836800D02*
X148793200Y-74734400D01*
X147230000Y-78400000D02*
X148793200Y-76836800D01*
X149388800Y-75330000D02*
X148793200Y-74734400D01*
X149960000Y-75330000D02*
X149388800Y-75330000D01*
G04 #@! TO.N,Net-(J2-Pad1)*
X138580000Y-74617440D02*
X141182560Y-77220000D01*
X138580000Y-73942440D02*
X138580000Y-74617440D01*
X147523200Y-75259400D02*
X147523200Y-74734400D01*
X145562600Y-77220000D02*
X147523200Y-75259400D01*
X141182560Y-77220000D02*
X145562600Y-77220000D01*
X147760000Y-74971200D02*
X147523200Y-74734400D01*
X147760000Y-76730000D02*
X147760000Y-74971200D01*
G04 #@! TD*
M02*
