G04 #@! TF.GenerationSoftware,KiCad,Pcbnew,5.0.2+dfsg1-1~bpo9+1*
G04 #@! TF.CreationDate,2021-01-31T11:02:44+00:00*
G04 #@! TF.ProjectId,attiny85_dipswitch_breakout,61747469-6e79-4383-955f-646970737769,rev?*
G04 #@! TF.SameCoordinates,Original*
G04 #@! TF.FileFunction,Legend,Top*
G04 #@! TF.FilePolarity,Positive*
%FSLAX46Y46*%
G04 Gerber Fmt 4.6, Leading zero omitted, Abs format (unit mm)*
G04 Created by KiCad (PCBNEW 5.0.2+dfsg1-1~bpo9+1) date Sun 31 Jan 2021 11:02:44 GMT*
%MOMM*%
%LPD*%
G01*
G04 APERTURE LIST*
%ADD10C,0.250000*%
%ADD11C,0.150000*%
G04 APERTURE END LIST*
D10*
X127388571Y-71152857D02*
X126888571Y-71152857D01*
X126888571Y-71938571D02*
X126888571Y-70438571D01*
X127602857Y-70438571D01*
X128817142Y-71938571D02*
X128817142Y-71152857D01*
X128745714Y-71010000D01*
X128602857Y-70938571D01*
X128317142Y-70938571D01*
X128174285Y-71010000D01*
X128817142Y-71867142D02*
X128674285Y-71938571D01*
X128317142Y-71938571D01*
X128174285Y-71867142D01*
X128102857Y-71724285D01*
X128102857Y-71581428D01*
X128174285Y-71438571D01*
X128317142Y-71367142D01*
X128674285Y-71367142D01*
X128817142Y-71295714D01*
X130174285Y-71867142D02*
X130031428Y-71938571D01*
X129745714Y-71938571D01*
X129602857Y-71867142D01*
X129531428Y-71795714D01*
X129460000Y-71652857D01*
X129460000Y-71224285D01*
X129531428Y-71081428D01*
X129602857Y-71010000D01*
X129745714Y-70938571D01*
X130031428Y-70938571D01*
X130174285Y-71010000D01*
X131388571Y-71867142D02*
X131245714Y-71938571D01*
X130960000Y-71938571D01*
X130817142Y-71867142D01*
X130745714Y-71724285D01*
X130745714Y-71152857D01*
X130817142Y-71010000D01*
X130960000Y-70938571D01*
X131245714Y-70938571D01*
X131388571Y-71010000D01*
X131460000Y-71152857D01*
X131460000Y-71295714D01*
X130745714Y-71438571D01*
X132317142Y-71938571D02*
X132174285Y-71867142D01*
X132102857Y-71724285D01*
X132102857Y-70438571D01*
X133460000Y-71867142D02*
X133317142Y-71938571D01*
X133031428Y-71938571D01*
X132888571Y-71867142D01*
X132817142Y-71724285D01*
X132817142Y-71152857D01*
X132888571Y-71010000D01*
X133031428Y-70938571D01*
X133317142Y-70938571D01*
X133460000Y-71010000D01*
X133531428Y-71152857D01*
X133531428Y-71295714D01*
X132817142Y-71438571D01*
X134102857Y-71867142D02*
X134245714Y-71938571D01*
X134531428Y-71938571D01*
X134674285Y-71867142D01*
X134745714Y-71724285D01*
X134745714Y-71652857D01*
X134674285Y-71510000D01*
X134531428Y-71438571D01*
X134317142Y-71438571D01*
X134174285Y-71367142D01*
X134102857Y-71224285D01*
X134102857Y-71152857D01*
X134174285Y-71010000D01*
X134317142Y-70938571D01*
X134531428Y-70938571D01*
X134674285Y-71010000D01*
X135317142Y-71867142D02*
X135460000Y-71938571D01*
X135745714Y-71938571D01*
X135888571Y-71867142D01*
X135960000Y-71724285D01*
X135960000Y-71652857D01*
X135888571Y-71510000D01*
X135745714Y-71438571D01*
X135531428Y-71438571D01*
X135388571Y-71367142D01*
X135317142Y-71224285D01*
X135317142Y-71152857D01*
X135388571Y-71010000D01*
X135531428Y-70938571D01*
X135745714Y-70938571D01*
X135888571Y-71010000D01*
X136388571Y-70938571D02*
X136960000Y-70938571D01*
X136602857Y-70438571D02*
X136602857Y-71724285D01*
X136674285Y-71867142D01*
X136817142Y-71938571D01*
X136960000Y-71938571D01*
X138031428Y-71867142D02*
X137888571Y-71938571D01*
X137602857Y-71938571D01*
X137460000Y-71867142D01*
X137388571Y-71724285D01*
X137388571Y-71152857D01*
X137460000Y-71010000D01*
X137602857Y-70938571D01*
X137888571Y-70938571D01*
X138031428Y-71010000D01*
X138102857Y-71152857D01*
X138102857Y-71295714D01*
X137388571Y-71438571D01*
X139388571Y-71867142D02*
X139245714Y-71938571D01*
X138960000Y-71938571D01*
X138817142Y-71867142D01*
X138745714Y-71795714D01*
X138674285Y-71652857D01*
X138674285Y-71224285D01*
X138745714Y-71081428D01*
X138817142Y-71010000D01*
X138960000Y-70938571D01*
X139245714Y-70938571D01*
X139388571Y-71010000D01*
X140031428Y-71938571D02*
X140031428Y-70438571D01*
X140674285Y-71938571D02*
X140674285Y-71152857D01*
X140602857Y-71010000D01*
X140460000Y-70938571D01*
X140245714Y-70938571D01*
X140102857Y-71010000D01*
X140031428Y-71081428D01*
X142460000Y-70581428D02*
X142531428Y-70510000D01*
X142674285Y-70438571D01*
X143031428Y-70438571D01*
X143174285Y-70510000D01*
X143245714Y-70581428D01*
X143317142Y-70724285D01*
X143317142Y-70867142D01*
X143245714Y-71081428D01*
X142388571Y-71938571D01*
X143317142Y-71938571D01*
X144245714Y-70438571D02*
X144388571Y-70438571D01*
X144531428Y-70510000D01*
X144602857Y-70581428D01*
X144674285Y-70724285D01*
X144745714Y-71010000D01*
X144745714Y-71367142D01*
X144674285Y-71652857D01*
X144602857Y-71795714D01*
X144531428Y-71867142D01*
X144388571Y-71938571D01*
X144245714Y-71938571D01*
X144102857Y-71867142D01*
X144031428Y-71795714D01*
X143960000Y-71652857D01*
X143888571Y-71367142D01*
X143888571Y-71010000D01*
X143960000Y-70724285D01*
X144031428Y-70581428D01*
X144102857Y-70510000D01*
X144245714Y-70438571D01*
X145317142Y-70581428D02*
X145388571Y-70510000D01*
X145531428Y-70438571D01*
X145888571Y-70438571D01*
X146031428Y-70510000D01*
X146102857Y-70581428D01*
X146174285Y-70724285D01*
X146174285Y-70867142D01*
X146102857Y-71081428D01*
X145245714Y-71938571D01*
X146174285Y-71938571D01*
X147602857Y-71938571D02*
X146745714Y-71938571D01*
X147174285Y-71938571D02*
X147174285Y-70438571D01*
X147031428Y-70652857D01*
X146888571Y-70795714D01*
X146745714Y-70867142D01*
D11*
G04 #@! TO.C,U3*
X142948800Y-81801200D02*
X131696600Y-81801200D01*
X131671200Y-75298800D02*
X142948800Y-75298800D01*
X131683900Y-81801200D02*
X131683900Y-75298800D01*
X142948800Y-81801200D02*
X142948800Y-75298800D01*
G04 #@! TO.C,J1*
X163322160Y-72195080D02*
X179705160Y-72195080D01*
X163317080Y-84900160D02*
X179700080Y-84900160D01*
X179710240Y-72195080D02*
X179710240Y-84895080D01*
X159999840Y-84900160D02*
X159999840Y-83071360D01*
X160004920Y-74018800D02*
X160004920Y-72190000D01*
X164805520Y-72205240D02*
X164805520Y-84905240D01*
G04 #@! TO.C,U1*
X144133200Y-81134400D02*
X144338200Y-81134400D01*
X144133200Y-75634400D02*
X144433200Y-75634400D01*
X149643200Y-75634400D02*
X149343200Y-75634400D01*
X149643200Y-81134400D02*
X149343200Y-81134400D01*
X144133200Y-81134400D02*
X144133200Y-75634400D01*
X149643200Y-81134400D02*
X149643200Y-75634400D01*
X144338200Y-81134400D02*
X144338200Y-82884400D01*
G04 #@! TO.C,SW1*
X125136000Y-81678000D02*
X125136000Y-75582000D01*
X125136000Y-75582000D02*
X128184000Y-75582000D01*
X128184000Y-75582000D02*
X128184000Y-81678000D01*
X128184000Y-81678000D02*
X125136000Y-81678000D01*
X126152000Y-79646000D02*
X126152000Y-77614000D01*
X126152000Y-77614000D02*
X127168000Y-77614000D01*
X127168000Y-77614000D02*
X127168000Y-79646000D01*
X127168000Y-79646000D02*
X126152000Y-79646000D01*
G04 #@! TO.C,J2*
X156701000Y-78822000D02*
X156701000Y-77425000D01*
X156066000Y-77425000D02*
X156701000Y-77425000D01*
X156701000Y-78822000D02*
X156066000Y-78822000D01*
X156066000Y-74631000D02*
X156066000Y-81616000D01*
X156066000Y-81616000D02*
X151494000Y-81616000D01*
X151494000Y-81616000D02*
X151494000Y-74504000D01*
X151494000Y-74504000D02*
X156066000Y-74504000D01*
G04 #@! TO.C,D1*
X119576660Y-79213015D02*
X118576660Y-79213015D01*
X118576660Y-78974920D01*
X118624280Y-78832062D01*
X118719518Y-78736824D01*
X118814756Y-78689205D01*
X119005232Y-78641586D01*
X119148089Y-78641586D01*
X119338565Y-78689205D01*
X119433803Y-78736824D01*
X119529041Y-78832062D01*
X119576660Y-78974920D01*
X119576660Y-79213015D01*
X119576660Y-77689205D02*
X119576660Y-78260634D01*
X119576660Y-77974920D02*
X118576660Y-77974920D01*
X118719518Y-78070158D01*
X118814756Y-78165396D01*
X118862375Y-78260634D01*
X124499180Y-78944440D02*
X123499180Y-78944440D01*
X123499180Y-78706344D01*
X123546800Y-78563487D01*
X123642038Y-78468249D01*
X123737276Y-78420630D01*
X123927752Y-78373011D01*
X124070609Y-78373011D01*
X124261085Y-78420630D01*
X124356323Y-78468249D01*
X124451561Y-78563487D01*
X124499180Y-78706344D01*
X124499180Y-78944440D01*
X124499180Y-77944440D02*
X123499180Y-77944440D01*
X123499180Y-76207293D02*
X124499180Y-75873960D01*
X123499180Y-75540626D01*
X123546800Y-80778415D02*
X123499180Y-80873653D01*
X123499180Y-81016510D01*
X123546800Y-81159367D01*
X123642038Y-81254605D01*
X123737276Y-81302224D01*
X123927752Y-81349843D01*
X124070609Y-81349843D01*
X124261085Y-81302224D01*
X124356323Y-81254605D01*
X124451561Y-81159367D01*
X124499180Y-81016510D01*
X124499180Y-80921272D01*
X124451561Y-80778415D01*
X124403942Y-80730796D01*
X124070609Y-80730796D01*
X124070609Y-80921272D01*
G04 #@! TD*
M02*
